inDegrees=yes
name=ik_coleta1_trike_mov
DataType=double
version=3
OpenSimVersion=4.4-2022-07-23-0e9fedc
endheader
time	pelvis_tilt	pelvis_tx	pelvis_ty	hip_flexion_r	knee_angle_r	ankle_angle_r	hip_flexion_l	knee_angle_l	ankle_angle_l	lumbar_extension	gearToGround_coord_0	rightPedalToGear_coord_0	leftPedalToGear_coord_0
24.58847689628601	52.5	-0.7	0.0500000000000003	64.19254384686565	-40.08872512136339	-1.039076492892845e-12	80.38799999999991	-84.66000000000004	5.05043721578303e-13	2.071017320375504e-12	0	-114.0000000000003	-139.067795130823
24.5924699306488	52.5	-0.7	0.0500000000000003	64.19250144434147	-40.51343745832821	-1.039076492892845e-12	80.38799999999991	-84.66000000000004	5.05043721578303e-13	2.071017320375504e-12	0	-114.0000000000003	-139.067795130823
24.59747672080994	52.5	-0.7	0.0500000000000003	63.7700354389868	-40.09092090712969	-1.039076492892845e-12	80.38799999999991	-84.66000000000004	5.05043721578303e-13	2.071017320375504e-12	0	-114.0000000000003	-139.067795130823
24.60548782348633	52.5	-0.7	0.0500000000000003	63.76999441850347	-40.50210887715181	-1.039076492892845e-12	80.38799999999991	-84.66000000000004	5.05043721578303e-13	2.071017320375504e-12	0	-114.0000000000003	-139.067795130823
24.61147904396057	52.5	-0.7	0.0500000000000003	63.34117906949616	-40.07324458957874	-1.039076492892845e-12	80.38799999999991	-84.66000000000004	5.05043721578303e-13	2.071017320375504e-12	0	-114.0000000000003	-139.067795130823
24.62047410011292	52.5	-0.7	0.0500000000000003	62.49398963173344	-39.22605513753008	-1.039076492892845e-12	80.38799999999991	-84.66000000000004	5.05043721578303e-13	2.071017320375504e-12	0	-114.0000000000003	-139.067795130823
24.62548494338989	52.5	-0.7	0.0500000000000003	62.49387441950336	-40.37915668108935	-1.039076492892845e-12	80.38799999999991	-84.66000000000004	5.05043721578303e-13	2.071017320375504e-12	0	-114.0000000000003	-139.067795130823
24.62947773933411	52.5	-0.7	0.0500000000000003	62.18842941354177	-40.07357418616872	-1.039076492892845e-12	80.38799999999991	-84.66000000000004	5.05043721578303e-13	2.071017320375504e-12	0	-114.0000000000003	-139.067795130823
24.63447093963623	52.5	-0.7	0.0500000000000003	61.88786173732758	-39.7730065205749	-1.039076492892845e-12	80.38799999999991	-84.66000000000004	5.05043721578303e-13	2.071017320375504e-12	0	-114.0000000000003	-139.067795130823
24.64048790931702	52.5	-0.7	0.0500000000000003	61.59169484553401	-39.47683962935271	-1.039076492892845e-12	80.38799999999991	-84.66000000000004	5.05043721578303e-13	2.071017320375504e-12	0	-114.0000000000003	-139.067795130823
24.6454861164093	52.5	-0.7	0.0500000000000003	61.59158774042652	-40.54664397048684	-1.039076492892845e-12	80.38799999999991	-84.66000000000004	5.05043721578303e-13	2.071017320375504e-12	0	-114.0000000000003	-139.067795130823
24.65046882629395	52.5	-0.7	0.0500000000000003	61.3071874979295	-40.26211584792838	-1.039076492892845e-12	80.38799999999991	-84.66000000000004	5.05043721578303e-13	2.071017320375504e-12	0	-114.0000000000003	-139.067795130823
24.66247200965881	52.5	-0.7	0.0500000000000003	61.30704034704905	-41.72874875509842	-1.039076492892845e-12	80.38799999999991	-84.66000000000004	5.05043721578303e-13	2.071017320375504e-12	0	-114.0000000000003	-139.067795130823
24.66846990585327	52.5	-0.7	0.0500000000000003	61.00156293649251	-41.42309559229653	-1.039076492892845e-12	80.38799999999991	-84.66000000000004	5.05043721578303e-13	2.071017320375504e-12	0	-114.0000000000003	-139.067795130823
24.67350506782532	52.5	-0.7	0.0500000000000003	61.00149272046936	-42.12210556741681	-1.039076492892845e-12	80.38799999999991	-84.66000000000004	5.05043721578303e-13	2.071017320375504e-12	0	-114.0000000000003	-139.067795130823
24.67746615409851	52.5	-0.7	0.0500000000000003	60.63125743422509	-41.75178641265538	-1.039076492892845e-12	80.38799999999991	-84.66000000000004	5.05043721578303e-13	2.071017320375504e-12	0	-114.0000000000003	-139.067795130823
24.68148612976074	52.5	-0.7	0.0500000000000003	60.63119421770229	-42.38050420546977	-1.039076492892845e-12	80.38799999999991	-84.66000000000004	5.05043721578303e-13	2.071017320375504e-12	0	-114.0000000000003	-139.067795130823
24.68748903274536	52.5	-0.7	0.0500000000000003	60.07913074567418	-41.82836520248172	-1.039076492892845e-12	80.38799999999991	-84.66000000000004	5.05043721578303e-13	2.071017320375504e-12	0	-114.0000000000003	-139.067795130823
24.69547390937805	52.5	-0.7	0.0500000000000003	60.07898138427109	-43.31040556271305	-1.039076492892845e-12	80.38799999999991	-84.66000000000004	5.05043721578303e-13	2.071017320375504e-12	0	-114.0000000000003	-139.067795130823
24.70947098731995	52.5	-0.7	0.0500000000000003	60.07904897449909	-44.1210832271195	-1.039076492892845e-12	80.38799999999991	-84.66000000000004	5.05043721578303e-13	2.071017320375504e-12	0	-114.0000000000003	-139.067795130823
24.71847486495972	52.5	-0.7	0.0500000000000003	60.07905011307773	-44.9187001340137	-1.039076492892845e-12	80.38799999999991	-84.66000000000004	5.05043721578303e-13	2.071017320375504e-12	0	-114.0000000000003	-139.067795130823
24.72350001335144	52.5	-0.7	0.0500000000000003	59.6999970621835	-44.53955066276072	-1.039076492892845e-12	80.38799999999991	-84.66000000000004	5.05043721578303e-13	2.071017320375504e-12	0	-114.0000000000003	-139.067795130823
24.72950387001038	52.5	-0.7	0.0500000000000003	59.6997588952235	-46.88279881443145	-1.039076492892845e-12	80.38799999999991	-84.66000000000004	5.05043721578303e-13	2.071017320375504e-12	0	-114.0000000000003	-139.067795130823
24.73347306251526	52.5	-0.7	0.0500000000000003	59.61875170789812	-46.80150642641316	-1.039076492892845e-12	80.38799999999991	-84.66000000000004	5.05043721578303e-13	2.071017320375504e-12	0	-114.0000000000003	-139.067795130823
24.73746991157532	52.5	-0.7	0.0500000000000003	59.6185551144961	-48.7291279757522	-1.039076492892845e-12	80.38799999999991	-84.66000000000004	5.05043721578303e-13	2.071017320375504e-12	0	-114.0000000000003	-139.067795130823
24.7414710521698	52.5	-0.7	0.0500000000000003	59.50311300628195	-48.61345037986046	-1.039076492892845e-12	80.38799999999991	-84.66000000000004	5.05043721578303e-13	2.071017320375504e-12	0	-114.0000000000003	-139.067795130823
24.74649286270142	52.5	-0.7	0.0500000000000003	59.50284123858997	-51.26839933989101	-1.039076492892845e-12	80.38799999999991	-84.66000000000004	5.05043721578303e-13	2.071017320375504e-12	0	-114.0000000000003	-139.067795130823
24.75747084617615	52.5	-0.7	0.0500000000000003	59.50300088845966	-52.36354194588728	-1.039076492892845e-12	80.38799999999991	-84.66000000000004	5.05043721578303e-13	2.071017320375504e-12	0	-114.0000000000003	-139.067795130823
24.76147794723511	52.5	-0.7	0.0500000000000003	59.53404993697649	-52.39445662764657	-1.039076492892845e-12	80.38799999999991	-84.66000000000004	5.05043721578303e-13	2.071017320375504e-12	0	-114.0000000000003	-139.067795130823
24.76746296882629	52.5	-0.7	0.0500000000000003	59.53393864129911	-53.479247503126	-1.039076492892845e-12	80.38799999999991	-84.66000000000004	5.05043721578303e-13	2.071017320375504e-12	0	-114.0000000000003	-139.067795130823
24.77549195289612	52.5	-0.7	0.0500000000000003	59.53394796949239	-54.47279226840305	-1.039076492892845e-12	80.38799999999991	-84.66000000000004	5.05043721578303e-13	2.071017320375504e-12	0	-114.0000000000003	-139.067795130823
